<?xml version="1.0" standalone="no"?>
<!DOCTYPE svg PUBLIC "-//W3C//DTD SVG 20010904//EN"
 "http://www.w3.org/TR/2001/REC-SVG-20010904/DTD/svg10.dtd">
<svg version="1.0" xmlns="http://www.w3.org/2000/svg"
 width="48.000000pt" height="48.000000pt" viewBox="0 0 48.000000 48.000000"
 preserveAspectRatio="xMidYMid meet">

<g transform="translate(0.000000,48.000000) scale(0.100000,-0.100000)"
fill="#000000" stroke="none">
<path d="M256 424 c-10 -9 -16 -33 -16 -59 0 -39 -4 -46 -35 -65 -99 -61 -97
-156 3 -176 22 -4 32 -12 32 -25 0 -26 -19 -34 -34 -13 -15 20 -36 11 -36 -16
0 -18 19 -30 49 -30 23 0 51 31 51 57 0 13 13 29 35 42 29 17 35 26 35 54 0
39 -15 57 -47 57 -34 0 -32 52 2 74 40 26 51 60 31 91 -19 28 -47 32 -70 9z
m49 -24 c7 -12 -12 -50 -25 -50 -11 0 -14 43 -3 53 9 10 21 9 28 -3z m-65
-135 c0 -8 -11 -22 -25 -31 -27 -17 -34 -44 -12 -44 7 0 18 5 25 12 9 9 12 5
12 -20 0 -37 -21 -42 -58 -16 -32 22 -28 58 11 88 37 30 47 32 47 11z m68 -72
c-2 -17 -10 -29 -20 -31 -14 -3 -18 3 -18 27 0 25 4 31 21 31 16 0 20 -5 17
-27z"/>
</g>
</svg>
